<?xml version="1.0" encoding="UTF-8"?>
<svg xmlns="http://www.w3.org/2000/svg" viewBox="0 0 1280 640"
     font-family="-apple-system, BlinkMacSystemFont, 'Segoe UI', Inter, Helvetica, sans-serif">
  <defs>
    <linearGradient id="tulipGrad" x1="0" y1="0" x2="0" y2="1">
      <stop offset="0" stop-color="#ED2F7E"/>
      <stop offset="1" stop-color="#F7A21E"/>
    </linearGradient>
  </defs>
  <rect width="1280" height="640" fill="#1E1B17"/>
  <rect x="0" y="630" width="1280" height="10" fill="url(#tulipGrad)"/>
  <g transform="translate(120,170) scale(3.0)">
    <path d="M50 86 C 30 78 17 58 19 34 C 34 42 47 60 50 86 Z" fill="url(#tulipGrad)"/>
    <path d="M50 86 C 70 78 83 58 81 34 C 66 42 53 60 50 86 Z" fill="url(#tulipGrad)"/>
    <path d="M50 86 C 44 60 44 38 50 18 C 56 38 56 60 50 86 Z" fill="url(#tulipGrad)"/>
  </g>
  <text x="470" y="300" font-size="150" font-weight="700" fill="#FAFAF9" letter-spacing="-0.04em">tuliplabs</text>
  <text x="476" y="356" font-size="30" font-weight="600" fill="#ED5A8B">Multi-Agent Reasoning Orchestrator SDK</text>
  <text x="476" y="430" font-size="28" font-weight="500" fill="#A8A29E" font-family="'JetBrains Mono', 'Menlo', monospace">$ pip install tulip-agents</text>
  <text x="1156" y="600" font-size="22" font-weight="500" fill="#78716C" text-anchor="end" letter-spacing="0.05em">github.com/tuliplabs-ai/sdk-python</text>
</svg>
