<?xml version="1.0" encoding="UTF-8"?>
<svg xmlns="http://www.w3.org/2000/svg" viewBox="0 0 720 380"
     font-family="-apple-system, BlinkMacSystemFont, 'Inter', sans-serif"
     shape-rendering="geometricPrecision">
  <defs>
    <filter id="sh" x="-20%" y="-20%" width="140%" height="140%">
      <feGaussianBlur in="SourceAlpha" stdDeviation="2"/>
      <feOffset dx="0" dy="2" result="o"/>
      <feComponentTransfer><feFuncA type="linear" slope="0.18"/></feComponentTransfer>
      <feMerge><feMergeNode/><feMergeNode in="SourceGraphic"/></feMerge>
    </filter>
    <marker id="a" viewBox="0 0 12 12" refX="11" refY="6" markerWidth="7" markerHeight="7" orient="auto-start-reverse">
      <path d="M 0,0 L 12,6 L 0,12 z" fill="#2A2F2F"/>
    </marker>
    <marker id="am" viewBox="0 0 12 12" refX="11" refY="6" markerWidth="7" markerHeight="7" orient="auto-start-reverse">
      <path d="M 0,0 L 12,6 L 0,12 z" fill="#6C3F49"/>
    </marker>
  </defs>

  <!-- START -->
  <g filter="url(#sh)">
    <ellipse cx="80" cy="60" rx="55" ry="22" fill="#FBF9F8" stroke="#2A2F2F" stroke-width="1.5"/>
    <text x="80" y="65" text-anchor="middle" font-size="13" font-weight="700" fill="#2A2F2F">START</text>
  </g>

  <!-- plan -->
  <g filter="url(#sh)">
    <rect x="200" y="35" width="130" height="50" rx="10" fill="#89B2B0"/>
    <text x="265" y="65" text-anchor="middle" font-size="14" font-weight="700" fill="#1F2828">plan</text>
  </g>

  <!-- research -->
  <g filter="url(#sh)">
    <rect x="395" y="35" width="130" height="50" rx="10" fill="#89B2B0"/>
    <text x="460" y="65" text-anchor="middle" font-size="14" font-weight="700" fill="#1F2828">research</text>
  </g>

  <!-- write -->
  <g filter="url(#sh)">
    <rect x="395" y="155" width="130" height="50" rx="10" fill="#89B2B0"/>
    <text x="460" y="185" text-anchor="middle" font-size="14" font-weight="700" fill="#1F2828">write</text>
  </g>

  <!-- review -->
  <g filter="url(#sh)">
    <rect x="200" y="155" width="130" height="50" rx="10" fill="#89B2B0"/>
    <text x="265" y="185" text-anchor="middle" font-size="14" font-weight="700" fill="#1F2828">review</text>
  </g>

  <!-- decision diamond -->
  <g filter="url(#sh)">
    <polygon points="80,170 120,200 80,230 40,200" fill="#F0CC71"/>
    <text x="80" y="198" text-anchor="middle" font-size="10" font-weight="700" fill="#3A2A0F">conf</text>
    <text x="80" y="210" text-anchor="middle" font-size="10" font-weight="700" fill="#3A2A0F">≥ 0.85?</text>
  </g>

  <!-- END -->
  <g filter="url(#sh)">
    <ellipse cx="80" cy="305" rx="55" ry="22" fill="#C74634"/>
    <text x="80" y="310" text-anchor="middle" font-size="13" font-weight="700" fill="#FFFFFF">END</text>
  </g>

  <!-- edges -->
  <line x1="135" y1="60" x2="195" y2="60" stroke="#2A2F2F" stroke-width="2" marker-end="url(#a)"/>
  <line x1="330" y1="60" x2="390" y2="60" stroke="#2A2F2F" stroke-width="2" marker-end="url(#a)"/>
  <line x1="460" y1="90" x2="460" y2="150" stroke="#2A2F2F" stroke-width="2" marker-end="url(#a)"/>
  <line x1="395" y1="180" x2="335" y2="180" stroke="#2A2F2F" stroke-width="2" marker-end="url(#a)"/>
  <line x1="200" y1="180" x2="125" y2="195" stroke="#2A2F2F" stroke-width="2" marker-end="url(#a)"/>

  <!-- decision branches -->
  <line x1="80" y1="230" x2="80" y2="280" stroke="#2A2F2F" stroke-width="2" marker-end="url(#a)"/>
  <text x="90" y="258" font-size="11" font-weight="700" fill="#2A2F2F">yes</text>

  <!-- loop-back -->
  <path d="M 120 200 Q 270 240, 460 215" stroke="#6C3F49" stroke-width="2" fill="none" stroke-dasharray="5,3" marker-end="url(#am)"/>
  <text x="290" y="270" font-size="11" font-weight="700" fill="#6C3F49" font-style="italic">no · revise &amp; re-write</text>

  <!-- legend -->
  <text x="20" y="365" font-size="11" font-style="italic" fill="#2A2F2F">explicit nodes + edges · cycles allowed · conditional branching · per-node retry/cache policies</text>
</svg>
